<?xml version="1.0" encoding="utf-8"?><!-- Uploaded to: SVG Repo, www.svgrepo.com, Generator: SVG Repo Mixer Tools -->
<svg fill="#000000" width="800px" height="800px" viewBox="0 0 24 24" id="coffee-left-2" data-name="Line Color" xmlns="http://www.w3.org/2000/svg" class="icon line-color"><path id="secondary" d="M14,3V5M10,3V5M6,3V5" style="fill: none; stroke: #b07219; stroke-linecap: round; stroke-linejoin: round; stroke-width: 2;"></path><path id="primary" d="M15,16l2.3-.57A2.25,2.25,0,0,0,19,13.25h0A2.25,2.25,0,0,0,16.75,11H15.17" style="fill: none; stroke: #b07219; stroke-linecap: round; stroke-linejoin: round; stroke-width: 2;"></path><path id="primary-2" data-name="primary" d="M6.81,21a1,1,0,0,1-1-.81A61,61,0,0,1,5,10,1,1,0,0,1,6,9h8a1,1,0,0,1,1,1,61,61,0,0,1-.83,10.18,1,1,0,0,1-1,.81Z" style="fill: none; stroke: #b07219; stroke-linecap: round; stroke-linejoin: round; stroke-width: 2;"></path></svg>
